<?xml version="1.0" encoding="UTF-8" ?>
<!DOCTYPE svg PUBLIC "-//W3C//DTD SVG 1.1//EN" "http://www.w3.org/Graphics/SVG/1.1/DTD/svg11.dtd">
<svg width="386pt" height="386pt" viewBox="0 0 386 386" version="1.1" xmlns="http://www.w3.org/2000/svg">
<g id="#fcfcfcff">
<path fill="#fcfcfc" opacity="1.00" d=" M 180.47 0.00 L 205.53 0.00 C 237.19 2.13 267.95 12.52 294.94 29.05 C 321.50 45.85 344.00 68.97 359.85 96.12 C 375.62 122.57 383.40 153.10 386.00 183.60 L 386.00 192.11 C 347.02 190.45 307.99 191.71 269.01 190.21 C 244.05 189.73 219.08 190.15 194.12 189.95 C 156.57 138.42 117.29 88.17 79.34 36.93 C 91.95 27.19 106.34 20.09 120.99 13.99 C 139.75 5.70 160.14 1.84 180.47 0.00 Z" />
<path fill="#fcfcfc" opacity="1.00" d=" M 8.90 135.92 C 17.63 106.00 34.45 78.60 56.51 56.66 C 92.77 105.28 129.58 153.50 165.83 202.14 C 170.91 208.95 175.66 217.22 184.64 219.24 C 194.69 220.47 204.85 220.10 214.96 220.17 C 220.73 230.35 226.56 240.49 232.51 250.56 C 233.86 253.57 236.25 256.37 236.52 259.76 C 232.41 267.69 226.87 274.81 222.71 282.73 C 212.16 301.99 200.49 320.60 189.78 339.77 C 181.54 354.54 172.12 368.64 164.60 383.81 C 109.33 375.94 58.28 342.43 29.26 294.70 C 11.66 267.88 3.36 236.15 0.00 204.55 L 0.00 181.45 C 1.95 166.11 4.31 150.72 8.90 135.92 Z" />
<path fill="#fcfcfc" opacity="1.00" d=" M 249.63 220.07 C 270.77 219.75 291.86 221.58 313.00 221.02 C 336.65 220.57 360.28 221.53 383.92 222.10 C 380.09 238.97 376.31 256.06 368.84 271.76 C 358.82 295.79 342.37 316.77 323.82 334.82 C 321.96 336.40 320.13 338.64 317.51 338.74 C 306.50 319.93 295.82 300.90 285.15 281.90 C 272.98 261.48 261.36 240.74 249.63 220.07 Z" />
<path fill="#fcfcfc" opacity="1.00" d=" M 253.85 289.25 C 263.48 302.77 270.47 317.91 278.90 332.16 C 283.97 340.55 288.81 349.08 293.37 357.77 C 281.70 364.93 269.00 370.16 256.33 375.29 C 238.74 381.61 220.12 384.76 201.50 386.00 L 197.54 386.00 C 200.28 382.16 202.47 377.95 204.85 373.89 C 220.94 345.53 237.65 317.54 253.85 289.25 Z" />
</g>
</svg>
